<svg width="430" height="424" viewBox="0 0 430 424" fill="none" xmlns="http://www.w3.org/2000/svg">
<mask id="path-1-inside-1_102_6" fill="white">
<path fill-rule="evenodd" clip-rule="evenodd" d="M194.9 117.915C185.77 123.063 175.228 126 164 126C152.482 126 141.686 122.909 132.395 117.511L104.875 165.178C104.045 164.439 103.249 163.749 102.477 163.101C97.0604 159.1 93.009 156.674 87.0759 154.03C85.9189 153.595 84.6899 153.164 83.3684 152.726L62.5468 188.493L42.6411 177V246.282L102.641 211.641L84.1974 200.993L104.984 165.028C117.882 176.564 126 193.334 126 212C126 246.794 97.7939 275 63 275C28.2061 275 0 246.794 0 212C0 177.206 28.2061 149 63 149C70.1392 149 77.0011 150.188 83.3988 152.376L113.359 100.483C105.593 90.0087 101 77.0407 101 63C101 28.2061 129.206 0 164 0C198.794 0 227 28.2061 227 63C227 77.3576 222.197 90.5935 214.11 101.189L243.653 152.358C250.036 150.181 256.88 149 264 149C298.794 149 327 177.206 327 212C327 225.153 322.969 237.365 316.075 247.467L347.102 301.207C353.356 299.126 360.047 298 367 298C401.794 298 430 326.206 430 361C430 395.794 401.794 424 367 424C332.206 424 304 395.794 304 361C304 342.137 312.29 325.21 325.426 313.664L297.53 265.346C287.82 271.462 276.323 275 264 275C253.806 275 244.177 272.579 235.658 268.28L209.156 314.182C221.954 325.713 230 342.417 230 361C230 395.794 201.794 424 167 424C132.206 424 104 395.794 104 361C104 326.206 132.206 298 167 298C174.227 298 181.17 299.217 187.635 301.457L215.836 252.613C206.579 241.646 201 227.475 201 212C201 193.334 209.118 176.563 222.016 165.027L243.09 200.656L224.645 211.16L284.65 245.333V176.987L264.743 188.325L243.803 153.012C240.693 154.012 238.089 154.963 235.775 155.996C232.569 157.642 229.77 159.387 226.615 161.614C225.235 162.735 223.838 163.998 222.344 165.45L194.9 117.915ZM207 63C207 86.7482 187.748 106 164 106C140.252 106 121 86.7482 121 63C121 39.2518 140.252 20 164 20C187.748 20 207 39.2518 207 63ZM167 404C190.748 404 210 384.748 210 361C210 337.252 190.748 318 167 318C143.252 318 124 337.252 124 361C124 384.748 143.252 404 167 404ZM410 361C410 384.748 390.748 404 367 404C343.252 404 324 384.748 324 361C324 337.252 343.252 318 367 318C390.748 318 410 337.252 410 361Z"/>
</mask>
<path fill-rule="evenodd" clip-rule="evenodd" d="M194.9 117.915C185.77 123.063 175.228 126 164 126C152.482 126 141.686 122.909 132.395 117.511L104.875 165.178C104.045 164.439 103.249 163.749 102.477 163.101C97.0604 159.1 93.009 156.674 87.0759 154.03C85.9189 153.595 84.6899 153.164 83.3684 152.726L62.5468 188.493L42.6411 177V246.282L102.641 211.641L84.1974 200.993L104.984 165.028C117.882 176.564 126 193.334 126 212C126 246.794 97.7939 275 63 275C28.2061 275 0 246.794 0 212C0 177.206 28.2061 149 63 149C70.1392 149 77.0011 150.188 83.3988 152.376L113.359 100.483C105.593 90.0087 101 77.0407 101 63C101 28.2061 129.206 0 164 0C198.794 0 227 28.2061 227 63C227 77.3576 222.197 90.5935 214.11 101.189L243.653 152.358C250.036 150.181 256.88 149 264 149C298.794 149 327 177.206 327 212C327 225.153 322.969 237.365 316.075 247.467L347.102 301.207C353.356 299.126 360.047 298 367 298C401.794 298 430 326.206 430 361C430 395.794 401.794 424 367 424C332.206 424 304 395.794 304 361C304 342.137 312.29 325.21 325.426 313.664L297.53 265.346C287.82 271.462 276.323 275 264 275C253.806 275 244.177 272.579 235.658 268.28L209.156 314.182C221.954 325.713 230 342.417 230 361C230 395.794 201.794 424 167 424C132.206 424 104 395.794 104 361C104 326.206 132.206 298 167 298C174.227 298 181.17 299.217 187.635 301.457L215.836 252.613C206.579 241.646 201 227.475 201 212C201 193.334 209.118 176.563 222.016 165.027L243.09 200.656L224.645 211.16L284.65 245.333V176.987L264.743 188.325L243.803 153.012C240.693 154.012 238.089 154.963 235.775 155.996C232.569 157.642 229.77 159.387 226.615 161.614C225.235 162.735 223.838 163.998 222.344 165.45L194.9 117.915ZM207 63C207 86.7482 187.748 106 164 106C140.252 106 121 86.7482 121 63C121 39.2518 140.252 20 164 20C187.748 20 207 39.2518 207 63ZM167 404C190.748 404 210 384.748 210 361C210 337.252 190.748 318 167 318C143.252 318 124 337.252 124 361C124 384.748 143.252 404 167 404ZM410 361C410 384.748 390.748 404 367 404C343.252 404 324 384.748 324 361C324 337.252 343.252 318 367 318C390.748 318 410 337.252 410 361Z" fill="white"/>
<path d="M194.9 117.915L196.632 116.915L195.642 115.2L193.917 116.173L194.9 117.915ZM132.395 117.511L133.4 115.782L131.666 114.774L130.663 116.511L132.395 117.511ZM104.875 165.178L103.544 166.672L105.379 168.306L106.607 166.178L104.875 165.178ZM102.477 163.101L103.763 161.569L103.715 161.529L103.665 161.492L102.477 163.101ZM87.0759 154.03L87.8901 152.203L87.8358 152.179L87.7802 152.158L87.0759 154.03ZM83.3684 152.726L83.9975 150.828L82.4566 150.317L81.6399 151.72L83.3684 152.726ZM62.5468 188.493L61.5468 190.225L63.2726 191.221L64.2752 189.499L62.5468 188.493ZM42.6411 177L43.6411 175.268L40.6411 173.536V177H42.6411ZM42.6411 246.282H40.6411V249.746L43.6411 248.014L42.6411 246.282ZM102.641 211.641L103.641 213.373L106.641 211.641L103.641 209.909L102.641 211.641ZM84.1974 200.993L82.4658 199.992L81.4645 201.724L83.1974 202.725L84.1974 200.993ZM104.984 165.028L106.317 163.537L104.484 161.897L103.253 164.027L104.984 165.028ZM83.3988 152.376L82.7515 154.268L84.3082 154.801L85.1309 153.376L83.3988 152.376ZM113.359 100.483L115.091 101.483L115.747 100.346L114.966 99.2921L113.359 100.483ZM214.11 101.189L212.521 99.9752L211.712 101.035L212.378 102.189L214.11 101.189ZM243.653 152.358L241.921 153.358L242.743 154.782L244.299 154.251L243.653 152.358ZM316.075 247.467L314.423 246.34L313.715 247.379L314.343 248.467L316.075 247.467ZM347.102 301.207L345.37 302.207L346.185 303.619L347.733 303.105L347.102 301.207ZM325.426 313.664L326.747 315.166L327.978 314.084L327.158 312.664L325.426 313.664ZM297.53 265.346L299.262 264.346L298.223 262.546L296.464 263.654L297.53 265.346ZM235.658 268.28L236.559 266.494L234.871 265.643L233.926 267.28L235.658 268.28ZM209.156 314.182L207.424 313.182L206.615 314.584L207.818 315.668L209.156 314.182ZM187.635 301.457L186.981 303.347L188.542 303.888L189.367 302.457L187.635 301.457ZM215.836 252.613L217.568 253.613L218.27 252.396L217.364 251.323L215.836 252.613ZM222.016 165.027L223.738 164.009L222.498 161.913L220.683 163.537L222.016 165.027ZM243.09 200.656L244.08 202.394L245.847 201.387L244.812 199.637L243.09 200.656ZM224.645 211.16L223.655 209.422L220.604 211.16L223.655 212.898L224.645 211.16ZM284.65 245.333L283.66 247.071L286.65 248.774V245.333H284.65ZM284.65 176.987H286.65V173.547L283.66 175.249L284.65 176.987ZM264.743 188.325L263.022 189.345L264.025 191.035L265.732 190.063L264.743 188.325ZM243.803 153.012L245.524 151.991L244.71 150.619L243.191 151.108L243.803 153.012ZM235.775 155.996L234.96 154.17L234.91 154.192L234.862 154.217L235.775 155.996ZM226.615 161.614L225.461 159.98L225.406 160.019L225.353 160.062L226.615 161.614ZM222.344 165.45L220.612 166.45L221.897 168.675L223.738 166.884L222.344 165.45ZM164 128C175.581 128 186.46 124.969 195.882 119.657L193.917 116.173C185.08 121.156 174.875 124 164 124V128ZM131.391 119.24C140.978 124.811 152.119 128 164 128V124C152.844 124 142.393 121.007 133.4 115.782L131.391 119.24ZM106.607 166.178L134.127 118.511L130.663 116.511L103.143 164.178L106.607 166.178ZM101.191 164.633C101.946 165.266 102.727 165.944 103.544 166.672L106.205 163.685C105.363 162.935 104.552 162.232 103.763 161.569L101.191 164.633ZM86.2617 155.857C92.0482 158.436 95.9751 160.785 101.289 164.709L103.665 161.492C98.1456 157.415 93.9698 154.913 87.8901 152.203L86.2617 155.857ZM82.7393 154.625C84.0409 155.056 85.2442 155.478 86.3716 155.902L87.7802 152.158C86.5935 151.712 85.3389 151.272 83.9975 150.828L82.7393 154.625ZM64.2752 189.499L85.0968 153.732L81.6399 151.72L60.8183 187.486L64.2752 189.499ZM41.6411 178.732L61.5468 190.225L63.5468 186.76L43.6411 175.268L41.6411 178.732ZM44.6411 246.282V177H40.6411V246.282H44.6411ZM101.641 209.909L41.6411 244.55L43.6411 248.014L103.641 213.373L101.641 209.909ZM83.1974 202.725L101.641 213.373L103.641 209.909L85.1974 199.26L83.1974 202.725ZM103.253 164.027L82.4658 199.992L85.929 201.993L106.716 166.028L103.253 164.027ZM128 212C128 192.741 119.622 175.436 106.317 163.537L103.651 166.518C116.142 177.691 124 193.927 124 212H128ZM63 277C98.8985 277 128 247.899 128 212H124C124 245.689 96.6894 273 63 273V277ZM-2 212C-2 247.899 27.1015 277 63 277V273C29.3106 273 2 245.689 2 212H-2ZM63 147C27.1015 147 -2 176.101 -2 212H2C2 178.311 29.3106 151 63 151V147ZM84.0461 150.483C77.4427 148.225 70.3623 147 63 147V151C69.9161 151 76.5594 152.15 82.7515 154.268L84.0461 150.483ZM111.627 99.4832L81.6668 151.376L85.1309 153.376L115.091 101.483L111.627 99.4832ZM99 63C99 77.4841 103.74 90.867 111.752 101.674L114.966 99.2921C107.447 89.1504 103 76.5974 103 63H99ZM164 -2C128.101 -2 99 27.1015 99 63H103C103 29.3106 130.311 2 164 2V-2ZM229 63C229 27.1015 199.899 -2 164 -2V2C197.689 2 225 29.3106 225 63H229ZM215.7 102.402C224.044 91.4705 229 77.8112 229 63H225C225 76.9041 220.351 89.7165 212.521 99.9752L215.7 102.402ZM245.385 151.358L215.842 100.189L212.378 102.189L241.921 153.358L245.385 151.358ZM264 147C256.658 147 249.596 148.218 243.007 150.465L244.299 154.251C250.477 152.144 257.103 151 264 151V147ZM329 212C329 176.101 299.899 147 264 147V151C297.689 151 325 178.311 325 212H329ZM317.727 248.595C324.841 238.171 329 225.568 329 212H325C325 224.738 321.098 236.559 314.423 246.34L317.727 248.595ZM348.834 300.207L317.807 246.467L314.343 248.467L345.37 302.207L348.834 300.207ZM367 296C359.829 296 352.926 297.162 346.471 299.309L347.733 303.105C353.787 301.091 360.264 300 367 300V296ZM432 361C432 325.101 402.899 296 367 296V300C400.689 300 428 327.311 428 361H432ZM367 426C402.899 426 432 396.899 432 361H428C428 394.689 400.689 422 367 422V426ZM302 361C302 396.899 331.101 426 367 426V422C333.311 422 306 394.689 306 361H302ZM324.106 312.162C310.556 324.071 302 341.538 302 361H306C306 342.736 314.024 326.348 326.747 315.166L324.106 312.162ZM295.798 266.346L323.694 314.664L327.158 312.664L299.262 264.346L295.798 266.346ZM264 277C276.711 277 288.576 273.349 298.596 267.038L296.464 263.654C287.064 269.574 275.935 273 264 273V277ZM234.757 270.066C243.549 274.502 253.486 277 264 277V273C254.126 273 244.805 270.655 236.559 266.494L234.757 270.066ZM210.888 315.182L237.39 269.28L233.926 267.28L207.424 313.182L210.888 315.182ZM232 361C232 341.827 223.696 324.591 210.495 312.696L207.818 315.668C220.212 326.836 228 343.007 228 361H232ZM167 426C202.899 426 232 396.899 232 361H228C228 394.689 200.689 422 167 422V426ZM102 361C102 396.899 131.101 426 167 426V422C133.311 422 106 394.689 106 361H102ZM167 296C131.101 296 102 325.101 102 361H106C106 327.311 133.311 300 167 300V296ZM188.29 299.567C181.617 297.255 174.453 296 167 296V300C174.001 300 180.723 301.179 186.981 303.347L188.29 299.567ZM214.104 251.613L185.903 300.457L189.367 302.457L217.568 253.613L214.104 251.613ZM199 212C199 227.964 204.758 242.589 214.308 253.903L217.364 251.323C208.401 240.703 203 226.985 203 212H199ZM220.683 163.537C207.378 175.436 199 192.741 199 212H203C203 193.926 210.858 177.691 223.349 166.518L220.683 163.537ZM244.812 199.637L223.738 164.009L220.295 166.046L241.369 201.674L244.812 199.637ZM225.635 212.898L244.08 202.394L242.101 198.918L223.655 209.422L225.635 212.898ZM285.64 243.595L225.635 209.422L223.655 212.898L283.66 247.071L285.64 243.595ZM282.65 176.987V245.333H286.65V176.987H282.65ZM265.732 190.063L285.64 178.725L283.66 175.249L263.753 186.587L265.732 190.063ZM242.083 154.032L263.022 189.345L266.463 187.305L245.524 151.991L242.083 154.032ZM236.59 157.822C238.814 156.83 241.344 155.904 244.416 154.915L243.191 151.108C240.042 152.121 237.364 153.097 234.96 154.17L236.59 157.822ZM227.768 163.248C230.864 161.063 233.582 159.37 236.689 157.775L234.862 154.217C231.555 155.914 228.676 157.711 225.461 159.98L227.768 163.248ZM223.738 166.884C225.201 165.462 226.554 164.241 227.876 163.166L225.353 160.062C223.917 161.229 222.475 162.534 220.95 164.016L223.738 166.884ZM193.168 118.915L220.612 166.45L224.076 164.45L196.632 116.915L193.168 118.915ZM164 108C188.853 108 209 87.8528 209 63H205C205 85.6437 186.644 104 164 104V108ZM119 63C119 87.8528 139.147 108 164 108V104C141.356 104 123 85.6437 123 63H119ZM164 18C139.147 18 119 38.1472 119 63H123C123 40.3563 141.356 22 164 22V18ZM209 63C209 38.1472 188.853 18 164 18V22C186.644 22 205 40.3563 205 63H209ZM208 361C208 383.644 189.644 402 167 402V406C191.853 406 212 385.853 212 361H208ZM167 320C189.644 320 208 338.356 208 361H212C212 336.147 191.853 316 167 316V320ZM126 361C126 338.356 144.356 320 167 320V316C142.147 316 122 336.147 122 361H126ZM167 402C144.356 402 126 383.644 126 361H122C122 385.853 142.147 406 167 406V402ZM367 406C391.853 406 412 385.853 412 361H408C408 383.644 389.644 402 367 402V406ZM322 361C322 385.853 342.147 406 367 406V402C344.356 402 326 383.644 326 361H322ZM367 316C342.147 316 322 336.147 322 361H326C326 338.356 344.356 320 367 320V316ZM412 361C412 336.147 391.853 316 367 316V320C389.644 320 408 338.356 408 361H412Z" fill="black" mask="url(#path-1-inside-1_102_6)"/>
</svg>
